<svg id="Capa_1" enable-background="new 0 0 512 512" height="512" viewBox="0 0 512 512" width="512" xmlns="http://www.w3.org/2000/svg"><g><path d="m405.456 85.643c-31.427-53.627-87.299-85.643-149.456-85.643s-118.029 32.016-149.456 85.643c-31.428 53.627-32.056 118.019-1.679 172.248l138.048 246.44h26.174l138.048-246.44c30.377-54.23 29.749-118.621-1.679-172.248z" fill="#007578"/><g><path d="m405.456 85.643c-31.427-53.627-87.299-85.643-149.456-85.643v504.331h13.087l138.048-246.44c30.377-54.23 29.749-118.621-1.679-172.248z" fill="#08475e"/></g><path d="m141 175c0 49.975 32.047 92.6 76.667 108.422l20.333-108.422-20.333-108.422c-44.62 15.822-76.667 58.447-76.667 108.422z" fill="#00da80"/><path d="m371 175c0-49.975-32.047-92.6-76.667-108.422l-20.333 108.422 20.333 108.422c44.62-15.822 76.667-58.447 76.667-108.422z" fill="#ff6378"/><path d="m256 60c-13.436 0-26.337 2.324-38.333 6.578v216.844c11.996 4.254 24.897 6.578 38.333 6.578s26.337-2.324 38.333-6.578v-216.844c-11.996-4.254-24.897-6.578-38.333-6.578z" fill="#f9f9f9"/><path d="m416 512h-320c-8.284 0-15-6.716-15-15s6.716-15 15-15h320c8.284 0 15 6.716 15 15s-6.716 15-15 15z" fill="#00da80"/><g><g><path d="m416 482h-160v30h160c8.284 0 15-6.716 15-15s-6.716-15-15-15z" fill="#009859"/></g><g><path d="m256 60v230c13.436 0 26.337-2.324 38.333-6.578v-216.844c-11.996-4.254-24.897-6.578-38.333-6.578z" fill="#e4e4ff"/></g></g></g></svg>